<?xml version="1.0" encoding="UTF-8"?><svg id="Layer_1" xmlns="http://www.w3.org/2000/svg" viewBox="0 0 621.8 199.6"><defs><style>.cls-1,.cls-2{font-family:ArialMT, Arial;}.cls-3{font-size:16px;}.cls-4,.cls-5{fill:#a21f6a;}.cls-6{font-family:Arial-BoldMT, Arial;font-weight:700;}.cls-2{letter-spacing:-.07em;}.cls-5{opacity:.38;}</style></defs><g id="circles"><g><ellipse class="cls-5" cx="96.77" cy="35.34" rx="14.76" ry="13.08"/><ellipse class="cls-5" cx="66.65" cy="17.4" rx="14.76" ry="13.08"/><ellipse class="cls-5" cx="54.37" cy="44.48" rx="14.76" ry="13.08"/><ellipse class="cls-5" cx="171.13" cy="56.65" rx="14.76" ry="13.08"/><ellipse class="cls-5" cx="14.76" cy="99.48" rx="14.76" ry="13.08"/><ellipse class="cls-5" cx="19.86" cy="137.25" rx="14.76" ry="13.08"/><ellipse class="cls-5" cx="121.12" cy="13.08" rx="14.76" ry="13.08"/><ellipse class="cls-5" cx="26.72" cy="68.88" rx="14.76" ry="13.08"/><ellipse class="cls-5" cx="84.37" cy="64.29" rx="14.76" ry="13.08"/><ellipse class="cls-5" cx="87.72" cy="159.24" rx="14.76" ry="13.08"/><ellipse class="cls-5" cx="43.93" cy="112.89" rx="14.76" ry="13.08"/><ellipse class="cls-5" cx="66.93" cy="186.52" rx="14.76" ry="13.08"/><ellipse class="cls-5" cx="50.27" cy="157.71" rx="14.76" ry="13.08"/><ellipse class="cls-5" cx="122.29" cy="55.03" rx="14.76" ry="13.08"/><ellipse class="cls-5" cx="147.4" cy="35.34" rx="14.76" ry="13.08"/><ellipse class="cls-5" cx="125.59" cy="150.32" rx="14.76" ry="13.08"/><ellipse class="cls-5" cx="164.21" cy="150.53" rx="14.76" ry="13.08"/><ellipse class="cls-5" cx="171.59" cy="116.68" rx="14.76" ry="13.08"/><ellipse class="cls-5" cx="179.69" cy="87.64" rx="14.76" ry="13.08"/><ellipse class="cls-5" cx="107.64" cy="184.34" rx="14.76" ry="13.08"/><ellipse class="cls-5" cx="143.75" cy="177.31" rx="14.76" ry="13.08"/></g><g><ellipse class="cls-4" cx="135.78" cy="113.32" rx="14.76" ry="13.08"/><ellipse class="cls-4" cx="69.14" cy="131.57" rx="14.76" ry="13.08"/><ellipse class="cls-4" cx="84.57" cy="103.26" rx="14.76" ry="13.08"/><ellipse class="cls-4" cx="147.78" cy="78.94" rx="14.76" ry="13.08"/><ellipse class="cls-4" cx="114.43" cy="84.95" rx="14.76" ry="13.08"/><ellipse class="cls-4" cx="58.58" cy="83.6" rx="14.76" ry="13.08"/><ellipse class="cls-4" cx="104.55" cy="126.12" rx="14.76" ry="13.08"/></g></g><text class="cls-3" transform="translate(231.75 103.89)"><tspan class="cls-1" x="0" y="0">More than </tspan><tspan class="cls-6" x="76.48" y="0">30% of the population</tspan><tspan class="cls-1" x="242.7" y="0" xml:space="preserve"> has fled the countr</tspan><tspan class="cls-2" x="378.79" y="0">y</tspan><tspan class="cls-1" x="385.6" y="0">.</tspan></text></svg>