<?xml version="1.0" encoding="UTF-8"?><svg xmlns="http://www.w3.org/2000/svg" viewBox="0 0 748.8 355.07"><defs><style>.cls-1{font-family:Georgia-Bold, Georgia;font-weight:700;}.cls-1,.cls-2{font-size:16px;}.cls-3{fill:#8e0e18;}.cls-4{fill:#ce0b14;}.cls-5{font-family:Arial-ItalicMT, Arial;font-size:9px;font-style:italic;}.cls-2,.cls-6{font-family:ArialMT, Arial;}.cls-6{fill:#fff;font-size:12px;}.cls-7{letter-spacing:-.11em;}</style></defs><g id="_2019-17"><g><ellipse class="cls-3" cx="13.95" cy="143.98" rx="4.61" ry="4.44"/><ellipse class="cls-3" cx="26.62" cy="140.49" rx="4.61" ry="4.44"/><ellipse class="cls-3" cx="23.16" cy="153.65" rx="4.61" ry="4.44"/><ellipse class="cls-3" cx="21.19" cy="179.64" rx="4.61" ry="4.44"/><ellipse class="cls-3" cx="39.53" cy="144.93" rx="4.61" ry="4.44"/><ellipse class="cls-3" cx="18.56" cy="166.17" rx="4.61" ry="4.44"/><ellipse class="cls-3" cx="35.83" cy="129.87" rx="4.61" ry="4.44"/><ellipse class="cls-3" cx="48.17" cy="135.1" rx="4.61" ry="4.44"/><ellipse class="cls-3" cx="52.78" cy="147.78" rx="4.61" ry="4.44"/><ellipse class="cls-3" cx="43.57" cy="157.29" rx="4.61" ry="4.44"/><ellipse class="cls-3" cx="31.8" cy="164.53" rx="4.61" ry="4.44"/><ellipse class="cls-3" cx="34.93" cy="177.26" rx="4.61" ry="4.44"/><ellipse class="cls-3" cx="65.29" cy="152.22" rx="4.61" ry="4.44"/><ellipse class="cls-3" cx="60.27" cy="176.71" rx="4.61" ry="4.44"/><ellipse class="cls-3" cx="46.69" cy="170.61" rx="4.61" ry="4.44"/><ellipse class="cls-3" cx="58.13" cy="163.08" rx="4.61" ry="4.44"/><ellipse class="cls-3" cx="46.12" cy="184.55" rx="4.61" ry="4.44"/></g><rect class="cls-3" y="277.62" width="731.75" height="21.38"/><text class="cls-2" transform="translate(34.93 315.81)"><tspan x="0" y="0">2019</tspan></text><text class="cls-2" transform="translate(162.7 316)"><tspan x="0" y="0">2020</tspan></text><text class="cls-1" transform="translate(106.06 13.54)"><tspan x="0" y="0">Number of deaths due to power outages in Venezuelan hospitals</tspan></text><text class="cls-5" transform="translate(583.19 352.15)"><tspan x="0" y="0">Source: Encuesta Nacional de Hospitales</tspan></text><text class="cls-6" transform="translate(27.79 292.81)"><tspan class="cls-7" x="0" y="0">T</tspan><tspan x="6" y="0">otal: 17</tspan></text><text class="cls-6" transform="translate(159.24 293.34)"><tspan class="cls-7" x="0" y="0">T</tspan><tspan x="6" y="0">otal: 75</tspan></text><text class="cls-6" transform="translate(347.79 292.81)"><tspan class="cls-7" x="0" y="0">T</tspan><tspan x="6" y="0">otal: 141</tspan></text><text class="cls-6" transform="translate(588 293.2)"><tspan class="cls-7" x="0" y="0">T</tspan><tspan x="6" y="0">otal: 233</tspan></text><text class="cls-2" transform="translate(355.59 316.1)"><tspan x="0" y="0">2021</tspan></text><text class="cls-2" transform="translate(598.04 316.29)"><tspan x="0" y="0">2022</tspan></text></g><g id="_2020-70"><g><ellipse class="cls-4" cx="145.42" cy="98.94" rx="4.61" ry="4.44"/><ellipse class="cls-4" cx="158.09" cy="101.92" rx="4.61" ry="4.44"/><ellipse class="cls-4" cx="171.34" cy="106.36" rx="4.61" ry="4.44"/><ellipse class="cls-4" cx="194.01" cy="119.12" rx="4.61" ry="4.44"/><ellipse class="cls-4" cx="190.59" cy="106.36" rx="4.61" ry="4.44"/><ellipse class="cls-4" cx="160.73" cy="114.68" rx="4.61" ry="4.44"/><ellipse class="cls-4" cx="167.89" cy="92.23" rx="4.61" ry="4.44"/><ellipse class="cls-4" cx="180.56" cy="96.67" rx="4.61" ry="4.44"/><ellipse class="cls-4" cx="200.22" cy="97.49" rx="4.61" ry="4.44"/><ellipse class="cls-4" cx="180.56" cy="116.14" rx="4.61" ry="4.44"/><ellipse class="cls-4" cx="147.73" cy="111.7" rx="4.61" ry="4.44"/><ellipse class="cls-4" cx="170.5" cy="125.01" rx="4.61" ry="4.44"/><ellipse class="cls-4" cx="204.25" cy="110.25" rx="4.61" ry="4.44"/><ellipse class="cls-4" cx="183.3" cy="129.45" rx="4.61" ry="4.44"/><ellipse class="cls-4" cx="206.2" cy="123.56" rx="4.61" ry="4.44"/><ellipse class="cls-4" cx="217.81" cy="111.7" rx="4.61" ry="4.44"/><ellipse class="cls-4" cx="220.02" cy="125.01" rx="4.61" ry="4.44"/><ellipse class="cls-4" cx="129.44" cy="173.04" rx="4.61" ry="4.44"/><ellipse class="cls-4" cx="111.01" cy="152.77" rx="4.61" ry="4.44"/><ellipse class="cls-4" cx="120.99" cy="118.15" rx="4.61" ry="4.44"/><ellipse class="cls-4" cx="187.05" cy="210.97" rx="4.61" ry="4.44"/><ellipse class="cls-4" cx="233.84" cy="144.32" rx="4.61" ry="4.44"/><ellipse class="cls-4" cx="129.44" cy="186.8" rx="4.61" ry="4.44"/><ellipse class="cls-4" cx="116.38" cy="175.2" rx="4.61" ry="4.44"/><ellipse class="cls-4" cx="115.61" cy="139.89" rx="4.61" ry="4.44"/><ellipse class="cls-4" cx="134.36" cy="114.68" rx="4.61" ry="4.44"/><ellipse class="cls-4" cx="154.64" cy="206.53" rx="4.61" ry="4.44"/><ellipse class="cls-4" cx="120.22" cy="162.71" rx="4.61" ry="4.44"/><ellipse class="cls-4" cx="131.74" cy="200.56" rx="4.61" ry="4.44"/><ellipse class="cls-4" cx="229.23" cy="173.04" rx="4.61" ry="4.44"/><ellipse class="cls-4" cx="165.33" cy="214.46" rx="4.61" ry="4.44"/><ellipse class="cls-4" cx="216.51" cy="193.22" rx="4.61" ry="4.44"/><ellipse class="cls-4" cx="217.81" cy="179.64" rx="4.61" ry="4.44"/><ellipse class="cls-4" cx="204.03" cy="199.11" rx="4.61" ry="4.44"/><ellipse class="cls-4" cx="125.6" cy="131.01" rx="4.61" ry="4.44"/><ellipse class="cls-4" cx="138.65" cy="127.58" rx="4.61" ry="4.44"/><ellipse class="cls-4" cx="145.42" cy="196.12" rx="4.61" ry="4.44"/><ellipse class="cls-4" cx="205.3" cy="158.86" rx="4.61" ry="4.44"/><ellipse class="cls-4" cx="208.86" cy="137.52" rx="4.61" ry="4.44"/><ellipse class="cls-4" cx="134.36" cy="140.48" rx="4.61" ry="4.44"/><ellipse class="cls-4" cx="152.14" cy="125.01" rx="4.61" ry="4.44"/><ellipse class="cls-4" cx="175.3" cy="205" rx="4.61" ry="4.44"/><ellipse class="cls-4" cx="196.88" cy="132.02" rx="4.61" ry="4.44"/><ellipse class="cls-4" cx="205.3" cy="172.83" rx="4.61" ry="4.44"/><ellipse class="cls-4" cx="124.83" cy="149.35" rx="4.61" ry="4.44"/><ellipse class="cls-4" cx="163.85" cy="197.66" rx="4.61" ry="4.44"/><ellipse class="cls-4" cx="217.18" cy="165.77" rx="4.61" ry="4.44"/><ellipse class="cls-4" cx="191.65" cy="199.11" rx="4.61" ry="4.44"/><ellipse class="cls-4" cx="214.52" cy="149.35" rx="4.61" ry="4.44"/><ellipse class="cls-4" cx="226.14" cy="155.68" rx="4.61" ry="4.44"/><ellipse class="cls-4" cx="222.42" cy="138.33" rx="4.61" ry="4.44"/><ellipse class="cls-4" cx="133.47" cy="160.12" rx="4.61" ry="4.44"/><ellipse class="cls-4" cx="148.31" cy="138.33" rx="4.61" ry="4.44"/><ellipse class="cls-4" cx="157.63" cy="147.64" rx="4.61" ry="4.44"/><ellipse class="cls-4" cx="179.91" cy="191.68" rx="4.61" ry="4.44"/><ellipse class="cls-4" cx="152.91" cy="160.19" rx="4.61" ry="4.44"/><ellipse class="cls-4" cx="142.78" cy="170.17" rx="4.61" ry="4.44"/><ellipse class="cls-4" cx="161.11" cy="135.45" rx="4.61" ry="4.44"/><ellipse class="cls-4" cx="174.01" cy="139.89" rx="4.61" ry="4.44"/><ellipse class="cls-4" cx="187.05" cy="142.76" rx="4.61" ry="4.44"/><ellipse class="cls-4" cx="142.68" cy="183.48" rx="4.61" ry="4.44"/><ellipse class="cls-4" cx="143.7" cy="149.99" rx="4.61" ry="4.44"/><ellipse class="cls-4" cx="155.35" cy="186.8" rx="4.61" ry="4.44"/><ellipse class="cls-4" cx="178.02" cy="152.08" rx="4.61" ry="4.44"/><ellipse class="cls-4" cx="165.72" cy="158.27" rx="4.61" ry="4.44"/><ellipse class="cls-4" cx="191.65" cy="157.75" rx="4.61" ry="4.44"/><ellipse class="cls-4" cx="199.64" cy="146.87" rx="4.61" ry="4.44"/><ellipse class="cls-4" cx="204.83" cy="186.8" rx="4.61" ry="4.44"/><ellipse class="cls-4" cx="169.04" cy="171.32" rx="4.61" ry="4.44"/><ellipse class="cls-4" cx="179.91" cy="164.63" rx="4.61" ry="4.44"/><ellipse class="cls-4" cx="155.22" cy="173.49" rx="4.61" ry="4.44"/><ellipse class="cls-4" cx="168.46" cy="185.32" rx="4.61" ry="4.44"/><ellipse class="cls-4" cx="192.23" cy="171.87" rx="4.61" ry="4.44"/><ellipse class="cls-4" cx="180.49" cy="179.05" rx="4.61" ry="4.44"/><ellipse class="cls-4" cx="192.23" cy="185.49" rx="4.61" ry="4.44"/></g></g><g id="_2021-141"><g><ellipse class="cls-3" cx="308.09" cy="83.06" rx="4.61" ry="4.44"/><ellipse class="cls-3" cx="292.89" cy="91.38" rx="4.61" ry="4.44"/><ellipse class="cls-3" cx="339.98" cy="78.62" rx="4.61" ry="4.44"/><ellipse class="cls-3" cx="358.04" cy="95.82" rx="4.61" ry="4.44"/><ellipse class="cls-3" cx="344.58" cy="91.66" rx="4.61" ry="4.44"/><ellipse class="cls-3" cx="294.73" cy="104.28" rx="4.61" ry="4.44"/><ellipse class="cls-3" cx="317.79" cy="91.38" rx="4.61" ry="4.44"/><ellipse class="cls-3" cx="313.18" cy="69.75" rx="4.61" ry="4.44"/><ellipse class="cls-3" cx="330.87" cy="89.5" rx="4.61" ry="4.44"/><ellipse class="cls-3" cx="322.39" cy="79.52" rx="4.61" ry="4.44"/><ellipse class="cls-3" cx="281.46" cy="106.7" rx="4.61" ry="4.44"/><ellipse class="cls-3" cx="333.97" cy="102.26" rx="4.61" ry="4.44"/><ellipse class="cls-3" cx="348.31" cy="124.51" rx="4.61" ry="4.44"/><ellipse class="cls-3" cx="346.47" cy="104.7" rx="4.61" ry="4.44"/><ellipse class="cls-3" cx="304.85" cy="95.82" rx="4.61" ry="4.44"/><ellipse class="cls-3" cx="356.54" cy="114.22" rx="4.61" ry="4.44"/><ellipse class="cls-3" cx="369.85" cy="118.37" rx="4.61" ry="4.44"/><ellipse class="cls-3" cx="294.73" cy="189" rx="4.61" ry="4.44"/><ellipse class="cls-3" cx="297.5" cy="143.02" rx="4.61" ry="4.44"/><ellipse class="cls-3" cx="275.61" cy="136.82" rx="4.61" ry="4.44"/><ellipse class="cls-3" cx="363.45" cy="193.44" rx="4.61" ry="4.44"/><ellipse class="cls-3" cx="368.06" cy="154.62" rx="4.61" ry="4.44"/><ellipse class="cls-3" cx="303.49" cy="204.25" rx="4.61" ry="4.44"/><ellipse class="cls-3" cx="283.18" cy="182.08" rx="4.61" ry="4.44"/><ellipse class="cls-3" cx="307.73" cy="151.9" rx="4.61" ry="4.44"/><ellipse class="cls-3" cx="282.6" cy="162.39" rx="4.61" ry="4.44"/><ellipse class="cls-3" cx="334.9" cy="187.67" rx="4.61" ry="4.44"/><ellipse class="cls-3" cx="288.86" cy="133.38" rx="4.61" ry="4.44"/><ellipse class="cls-3" cx="316.3" cy="215.35" rx="4.61" ry="4.44"/><ellipse class="cls-3" cx="284.83" cy="146.35" rx="4.61" ry="4.44"/><ellipse class="cls-3" cx="379.44" cy="187.67" rx="4.61" ry="4.44"/><ellipse class="cls-3" cx="311.9" cy="139.4" rx="4.61" ry="4.44"/><ellipse class="cls-3" cx="273.39" cy="153.01" rx="4.61" ry="4.44"/><ellipse class="cls-3" cx="354.89" cy="204.25" rx="4.61" ry="4.44"/><ellipse class="cls-3" cx="294.23" cy="156.34" rx="4.61" ry="4.44"/><ellipse class="cls-3" cx="307.29" cy="108.72" rx="4.61" ry="4.44"/><ellipse class="cls-3" cx="330.3" cy="199.81" rx="4.61" ry="4.44"/><ellipse class="cls-3" cx="355.68" cy="160.78" rx="4.61" ry="4.44"/><ellipse class="cls-3" cx="367.77" cy="104.28" rx="4.61" ry="4.44"/><ellipse class="cls-3" cx="320.78" cy="105.3" rx="4.61" ry="4.44"/><ellipse class="cls-3" cx="325.39" cy="117.81" rx="4.61" ry="4.44"/><ellipse class="cls-3" cx="351.36" cy="187.13" rx="4.61" ry="4.44"/><ellipse class="cls-3" cx="292.89" cy="171.56" rx="4.61" ry="4.44"/><ellipse class="cls-3" cx="353.62" cy="147.46" rx="4.61" ry="4.44"/><ellipse class="cls-3" cx="297.5" cy="117.18" rx="4.61" ry="4.44"/><ellipse class="cls-3" cx="343.25" cy="176.68" rx="4.61" ry="4.44"/><ellipse class="cls-3" cx="365.52" cy="141.25" rx="4.61" ry="4.44"/><ellipse class="cls-3" cx="343.25" cy="210.91" rx="4.61" ry="4.44"/><ellipse class="cls-3" cx="383.47" cy="120.57" rx="4.61" ry="4.44"/><ellipse class="cls-3" cx="303.95" cy="165.21" rx="4.61" ry="4.44"/><ellipse class="cls-3" cx="374.46" cy="131.43" rx="4.61" ry="4.44"/><ellipse class="cls-3" cx="302.1" cy="131.08" rx="4.61" ry="4.44"/><ellipse class="cls-3" cx="320.78" cy="149.53" rx="4.61" ry="4.44"/><ellipse class="cls-3" cx="330.87" cy="140.65" rx="4.61" ry="4.44"/><ellipse class="cls-3" cx="355.97" cy="174.35" rx="4.61" ry="4.44"/><ellipse class="cls-3" cx="322.39" cy="130.53" rx="4.61" ry="4.44"/><ellipse class="cls-3" cx="308.09" cy="191.57" rx="4.61" ry="4.44"/><ellipse class="cls-3" cx="345.58" cy="137.82" rx="4.61" ry="4.44"/><ellipse class="cls-3" cx="338.58" cy="115.02" rx="4.61" ry="4.44"/><ellipse class="cls-3" cx="284.25" cy="120.57" rx="4.61" ry="4.44"/><ellipse class="cls-3" cx="321.57" cy="190.25" rx="4.61" ry="4.44"/><ellipse class="cls-3" cx="312.34" cy="121.02" rx="4.61" ry="4.44"/><ellipse class="cls-3" cx="316.96" cy="202.31" rx="4.61" ry="4.44"/><ellipse class="cls-3" cx="335.48" cy="127.94" rx="4.61" ry="4.44"/><ellipse class="cls-3" cx="330.3" cy="213.7" rx="4.61" ry="4.44"/><ellipse class="cls-3" cx="330.03" cy="159.06" rx="4.61" ry="4.44"/><ellipse class="cls-3" cx="361.15" cy="128.94" rx="4.61" ry="4.44"/><ellipse class="cls-3" cx="367.7" cy="182.08" rx="4.61" ry="4.44"/><ellipse class="cls-3" cx="317.79" cy="163.5" rx="4.61" ry="4.44"/><ellipse class="cls-3" cx="303.95" cy="178.79" rx="4.61" ry="4.44"/><ellipse class="cls-3" cx="330.3" cy="172.25" rx="4.61" ry="4.44"/><ellipse class="cls-3" cx="343.25" cy="197.87" rx="4.61" ry="4.44"/><ellipse class="cls-3" cx="340.66" cy="150.18" rx="4.61" ry="4.44"/><ellipse class="cls-3" cx="342.28" cy="163.5" rx="4.61" ry="4.44"/><ellipse class="cls-3" cx="317.79" cy="177.17" rx="4.61" ry="4.44"/><ellipse class="cls-3" cx="416.24" cy="174.71" rx="4.61" ry="4.44"/><ellipse class="cls-3" cx="430.32" cy="108.47" rx="4.61" ry="4.44"/><ellipse class="cls-3" cx="392.38" cy="161.05" rx="4.61" ry="4.44"/><ellipse class="cls-3" cx="379.44" cy="174.71" rx="4.61" ry="4.44"/><ellipse class="cls-3" cx="367.33" cy="167.81" rx="4.61" ry="4.44"/><ellipse class="cls-3" cx="392.38" cy="147.46" rx="4.61" ry="4.44"/><ellipse class="cls-3" cx="442.42" cy="163.31" rx="4.61" ry="4.44"/><ellipse class="cls-3" cx="425.95" cy="93.03" rx="4.61" ry="4.44"/><ellipse class="cls-3" cx="440.58" cy="115.42" rx="4.61" ry="4.44"/><ellipse class="cls-3" cx="431.94" cy="139.4" rx="4.61" ry="4.44"/><ellipse class="cls-3" cx="393.53" cy="111.63" rx="4.61" ry="4.44"/><ellipse class="cls-3" cx="331.45" cy="68.45" rx="4.61" ry="4.44"/><ellipse class="cls-3" cx="392.96" cy="174.91" rx="4.61" ry="4.44"/><ellipse class="cls-3" cx="408.72" cy="125.01" rx="4.61" ry="4.44"/><ellipse class="cls-3" cx="442.42" cy="130.69" rx="4.61" ry="4.44"/><ellipse class="cls-3" cx="379.9" cy="161.05" rx="4.61" ry="4.44"/><ellipse class="cls-3" cx="339.51" cy="58.49" rx="4.61" ry="4.44"/><ellipse class="cls-3" cx="415.91" cy="160.99" rx="4.61" ry="4.44"/><ellipse class="cls-3" cx="413.33" cy="143.84" rx="4.61" ry="4.44"/><ellipse class="cls-3" cx="425.24" cy="150.19" rx="4.61" ry="4.44"/><ellipse class="cls-3" cx="438.46" cy="150.79" rx="4.61" ry="4.44"/><ellipse class="cls-3" cx="387.01" cy="135.68" rx="4.61" ry="4.44"/><ellipse class="cls-3" cx="417.13" cy="103.72" rx="4.61" ry="4.44"/><ellipse class="cls-3" cx="378.77" cy="146.48" rx="4.61" ry="4.44"/><ellipse class="cls-3" cx="404.69" cy="167.75" rx="4.61" ry="4.44"/><ellipse class="cls-3" cx="401.02" cy="137.68" rx="4.61" ry="4.44"/><ellipse class="cls-3" cx="430.55" cy="123.5" rx="4.61" ry="4.44"/><ellipse class="cls-3" cx="396.1" cy="125.45" rx="4.61" ry="4.44"/><ellipse class="cls-3" cx="404.12" cy="153.97" rx="4.61" ry="4.44"/><ellipse class="cls-3" cx="392.96" cy="188.22" rx="4.61" ry="4.44"/><ellipse class="cls-3" cx="381.5" cy="211.96" rx="4.61" ry="4.44"/><ellipse class="cls-3" cx="393.53" cy="219.23" rx="4.61" ry="4.44"/><ellipse class="cls-3" cx="354.89" cy="218.13" rx="4.61" ry="4.44"/><ellipse class="cls-3" cx="343.25" cy="224.78" rx="4.61" ry="4.44"/><ellipse class="cls-3" cx="366.65" cy="210.85" rx="4.61" ry="4.44"/><ellipse class="cls-3" cx="404.48" cy="181.68" rx="4.61" ry="4.44"/><ellipse class="cls-3" cx="375.29" cy="201.02" rx="4.61" ry="4.44"/><ellipse class="cls-3" cx="399.87" cy="207.52" rx="4.61" ry="4.44"/><ellipse class="cls-3" cx="388.66" cy="201.02" rx="4.61" ry="4.44"/><ellipse class="cls-3" cx="372.67" cy="222.9" rx="4.61" ry="4.44"/><ellipse class="cls-3" cx="376.24" cy="94.5" rx="4.61" ry="4.44"/><ellipse class="cls-3" cx="352.93" cy="81.25" rx="4.61" ry="4.44"/><ellipse class="cls-3" cx="380.65" cy="107.19" rx="4.61" ry="4.44"/><ellipse class="cls-3" cx="365.89" cy="85.58" rx="4.61" ry="4.44"/><ellipse class="cls-3" cx="363.78" cy="72.61" rx="4.61" ry="4.44"/><ellipse class="cls-3" cx="348.31" cy="68.36" rx="4.61" ry="4.44"/><ellipse class="cls-3" cx="373.6" cy="63.93" rx="4.61" ry="4.44"/><ellipse class="cls-3" cx="386.3" cy="59.65" rx="4.61" ry="4.44"/><ellipse class="cls-3" cx="359.17" cy="59.65" rx="4.61" ry="4.44"/><ellipse class="cls-3" cx="376.24" cy="77.12" rx="4.61" ry="4.44"/><ellipse class="cls-3" cx="388.92" cy="72.61" rx="4.61" ry="4.44"/><ellipse class="cls-3" cx="386.3" cy="85.69" rx="4.61" ry="4.44"/><ellipse class="cls-3" cx="402.75" cy="72.8" rx="4.61" ry="4.44"/><ellipse class="cls-3" cx="390.91" cy="98.66" rx="4.61" ry="4.44"/><ellipse class="cls-3" cx="413.1" cy="88.59" rx="4.61" ry="4.44"/><ellipse class="cls-3" cx="400.28" cy="86.29" rx="4.61" ry="4.44"/><ellipse class="cls-3" cx="404.89" cy="98.66" rx="4.61" ry="4.44"/><ellipse class="cls-3" cx="406.78" cy="112.18" rx="4.61" ry="4.44"/><ellipse class="cls-3" cx="419.48" cy="116.62" rx="4.61" ry="4.44"/><ellipse class="cls-3" cx="420.33" cy="133.24" rx="4.61" ry="4.44"/><ellipse class="cls-3" cx="429.16" cy="163.31" rx="4.61" ry="4.44"/><ellipse class="cls-3" cx="430.32" cy="176.68" rx="4.61" ry="4.44"/><ellipse class="cls-3" cx="404.69" cy="194.6" rx="4.61" ry="4.44"/><ellipse class="cls-3" cx="416.24" cy="188.43" rx="4.61" ry="4.44"/><ellipse class="cls-3" cx="430.32" cy="190.25" rx="4.61" ry="4.44"/><ellipse class="cls-3" cx="415.91" cy="202.15" rx="4.61" ry="4.44"/></g></g><g id="_2022-233"><g><circle class="cls-4" cx="537.19" cy="95.76" r="4.5"/><circle class="cls-4" cx="526.19" cy="109.76" r="4.5"/><circle class="cls-4" cx="577.19" cy="94.76" r="4.5"/><circle class="cls-4" cx="584.19" cy="119.76" r="4.5"/><circle class="cls-4" cx="578.19" cy="106.76" r="4.5"/><circle class="cls-4" cx="528.19" cy="122.76" r="4.5"/><circle class="cls-4" cx="552.19" cy="113.76" r="4.5"/><circle class="cls-4" cx="541.19" cy="82.76" r="4.5"/><circle class="cls-4" cx="564.19" cy="108.76" r="4.5"/><circle class="cls-4" cx="551.19" cy="99.76" r="4.5"/><circle class="cls-4" cx="516.19" cy="127.76" r="4.5"/><circle class="cls-4" cx="558.19" cy="125.76" r="4.5"/><circle class="cls-4" cx="576.19" cy="145.76" r="4.5"/><circle class="cls-4" cx="571.19" cy="120.76" r="4.5"/><circle class="cls-4" cx="538.19" cy="108.76" r="4.5"/><circle class="cls-4" cx="582.19" cy="132.76" r="4.5"/><circle class="cls-4" cx="592.19" cy="140.76" r="4.5"/><circle class="cls-4" cx="535.19" cy="231.76" r="4.5"/><circle class="cls-4" cx="528.19" cy="167.76" r="4.5"/><circle class="cls-4" cx="507.19" cy="167.76" r="4.5"/><circle class="cls-4" cx="600.19" cy="209.76" r="4.5"/><circle class="cls-4" cx="588.19" cy="168.76" r="4.5"/><circle class="cls-4" cx="561.19" cy="233.76" r="4.5"/><circle class="cls-4" cx="512.19" cy="202.76" r="4.5"/><circle class="cls-4" cx="539.19" cy="175.76" r="4.5"/><circle class="cls-4" cx="514.19" cy="188.76" r="4.5"/><circle class="cls-4" cx="574.19" cy="231.76" r="4.5"/><circle class="cls-4" cx="494.19" cy="168.76" r="4.5"/><circle class="cls-4" cx="555.19" cy="245.76" r="4.5"/><circle class="cls-4" cx="518.19" cy="175.76" r="4.5"/><circle class="cls-4" cx="611.19" cy="216.76" r="4.5"/><circle class="cls-4" cx="541.19" cy="159.76" r="4.5"/><circle class="cls-4" cx="504.19" cy="180.76" r="4.5"/><circle class="cls-4" cx="600.19" cy="222.76" r="4.5"/><circle class="cls-4" cx="528.19" cy="183.76" r="4.5"/><circle class="cls-4" cx="542.19" cy="122.76" r="4.5"/><circle class="cls-4" cx="568.19" cy="245.76" r="4.5"/><circle class="cls-4" cx="588.19" cy="201.76" r="4.5"/><circle class="cls-4" cx="595.19" cy="127.76" r="4.5"/><circle class="cls-4" cx="518.19" cy="72.76" r="4.5"/><circle class="cls-4" cx="547.19" cy="134.76" r="4.5"/><circle class="cls-4" cx="588.19" cy="214.76" r="4.5"/><circle class="cls-4" cx="525.19" cy="196.76" r="4.5"/><circle class="cls-4" cx="577.19" cy="162.76" r="4.5"/><circle class="cls-4" cx="534.19" cy="135.76" r="4.5"/><circle class="cls-4" cx="575.19" cy="217.76" r="4.5"/><circle class="cls-4" cx="602.19" cy="165.76" r="4.5"/><circle class="cls-4" cx="618.19" cy="254.76" r="4.5"/><circle class="cls-4" cx="612.19" cy="146.76" r="4.5"/><circle class="cls-4" cx="540.19" cy="191.76" r="4.5"/><circle class="cls-4" cx="600.19" cy="151.76" r="4.5"/><circle class="cls-4" cx="529.19" cy="151.76" r="4.5"/><circle class="cls-4" cx="551.19" cy="169.76" r="4.5"/><circle class="cls-4" cx="564.19" cy="167.76" r="4.5"/><circle class="cls-4" cx="597.19" cy="191.76" r="4.5"/><circle class="cls-4" cx="552.19" cy="155.76" r="4.5"/><circle class="cls-4" cx="548.19" cy="221.76" r="4.5"/><circle class="cls-4" cx="566.19" cy="154.76" r="4.5"/><circle class="cls-4" cx="567.19" cy="135.76" r="4.5"/><circle class="cls-4" cx="522.19" cy="139.76" r="4.5"/><circle class="cls-4" cx="562.19" cy="220.76" r="4.5"/><circle class="cls-4" cx="542.19" cy="146.76" r="4.5"/><circle class="cls-4" cx="548.19" cy="234.76" r="4.5"/><circle class="cls-4" cx="558.19" cy="143.76" r="4.5"/><circle class="cls-4" cx="588.19" cy="228.76" r="4.5"/><circle class="cls-4" cx="564.19" cy="181.76" r="4.5"/><circle class="cls-4" cx="586.19" cy="153.76" r="4.5"/><circle class="cls-4" cx="664.19" cy="232.76" r="4.5"/><circle class="cls-4" cx="550.19" cy="182.76" r="4.5"/><circle class="cls-4" cx="535.19" cy="217.76" r="4.5"/><circle class="cls-4" cx="562.19" cy="206.76" r="4.5"/><circle class="cls-4" cx="581.19" cy="242.76" r="4.5"/><circle class="cls-4" cx="577.19" cy="175.76" r="4.5"/><circle class="cls-4" cx="576.19" cy="203.76" r="4.5"/><circle class="cls-4" cx="548.19" cy="207.76" r="4.5"/><circle class="cls-4" cx="650.19" cy="185.76" r="4.5"/><circle class="cls-4" cx="652.19" cy="116.76" r="4.5"/><circle class="cls-4" cx="624.19" cy="179.76" r="4.5"/><circle class="cls-4" cx="609.19" cy="198.76" r="4.5"/><circle class="cls-4" cx="613.19" cy="185.76" r="4.5"/><circle class="cls-4" cx="625.19" cy="166.76" r="4.5"/><circle class="cls-4" cx="705.19" cy="139.76" r="4.5"/><circle class="cls-4" cx="663.19" cy="108.76" r="4.5"/><circle class="cls-4" cx="667.19" cy="136.76" r="4.5"/><circle class="cls-4" cx="658.19" cy="147.76" r="4.5"/><circle class="cls-4" cx="620.19" cy="133.76" r="4.5"/><circle class="cls-4" cx="563.19" cy="95.76" r="4.5"/><circle class="cls-4" cx="623.19" cy="193.76" r="4.5"/><circle class="cls-4" cx="633.19" cy="139.76" r="4.5"/><circle class="cls-4" cx="677.19" cy="143.76" r="4.5"/><circle class="cls-4" cx="602.19" cy="178.76" r="4.5"/><circle class="cls-4" cx="569.19" cy="82.76" r="4.5"/><circle class="cls-4" cx="650.19" cy="172.76" r="4.5"/><circle class="cls-4" cx="639.19" cy="164.76" r="4.5"/><circle class="cls-4" cx="650.19" cy="157.76" r="4.5"/><circle class="cls-4" cx="661.19" cy="164.76" r="4.5"/><circle class="cls-4" cx="614.19" cy="158.76" r="4.5"/><circle class="cls-4" cx="639.19" cy="115.76" r="4.5"/><circle class="cls-4" cx="613.19" cy="172.76" r="4.5"/><circle class="cls-4" cx="637.19" cy="192.76" r="4.5"/><circle class="cls-4" cx="625.19" cy="150.76" r="4.5"/><circle class="cls-4" cx="647.19" cy="140.76" r="4.5"/><circle class="cls-4" cx="654.19" cy="130.76" r="4.5"/><circle class="cls-4" cx="638.19" cy="178.76" r="4.5"/><circle class="cls-4" cx="628.19" cy="216.76" r="4.5"/><circle class="cls-4" cx="631.19" cy="234.76" r="4.5"/><circle class="cls-4" cx="618.19" cy="241.76" r="4.5"/><circle class="cls-4" cx="595.19" cy="240.76" r="4.5"/><circle class="cls-4" cx="607.19" cy="247.76" r="4.5"/><circle class="cls-4" cx="607.19" cy="233.76" r="4.5"/><circle class="cls-4" cx="633.19" cy="204.76" r="4.5"/><circle class="cls-4" cx="619.19" cy="227.76" r="4.5"/><circle class="cls-4" cx="642.19" cy="240.76" r="4.5"/><circle class="cls-4" cx="620.19" cy="205.76" r="4.5"/><circle class="cls-4" cx="630.19" cy="247.76" r="4.5"/><circle class="cls-4" cx="603.19" cy="116.76" r="4.5"/><circle class="cls-4" cx="592.19" cy="108.76" r="4.5"/><circle class="cls-4" cx="607.19" cy="133.76" r="4.5"/><circle class="cls-4" cx="590.19" cy="94.76" r="4.5"/><circle class="cls-4" cx="599.19" cy="84.76" r="4.5"/><circle class="cls-4" cx="584.19" cy="82.76" r="4.5"/><circle class="cls-4" cx="610.19" cy="90.76" r="4.5"/><circle class="cls-4" cx="622.19" cy="81.76" r="4.5"/><circle class="cls-4" cx="602.19" cy="100.76" r="4.5"/><circle class="cls-4" cx="609.19" cy="76.76" r="4.5"/><circle class="cls-4" cx="621.19" cy="97.76" r="4.5"/><circle class="cls-4" cx="613.19" cy="108.76" r="4.5"/><circle class="cls-4" cx="631.19" cy="90.76" r="4.5"/><circle class="cls-4" cx="614.19" cy="122.76" r="4.5"/><circle class="cls-4" cx="651.19" cy="103.76" r="4.5"/><circle class="cls-4" cx="637.19" cy="101.76" r="4.5"/><circle class="cls-4" cx="699.19" cy="127.76" r="4.5"/><circle class="cls-4" cx="628.19" cy="123.76" r="4.5"/><circle class="cls-4" cx="641.19" cy="128.76" r="4.5"/><circle class="cls-4" cx="638.19" cy="152.76" r="4.5"/><circle class="cls-4" cx="662.19" cy="179.76" r="4.5"/><circle class="cls-4" cx="661.19" cy="192.76" r="4.5"/><circle class="cls-4" cx="657.19" cy="218.76" r="4.5"/><circle class="cls-4" cx="649.19" cy="199.76" r="4.5"/><circle class="cls-4" cx="660.19" cy="205.76" r="4.5"/><circle class="cls-4" cx="655.19" cy="243.76" r="4.5"/><circle class="cls-4" cx="553.19" cy="86.76" r="4.5"/><circle class="cls-4" cx="546.19" cy="70.76" r="4.5"/><circle class="cls-4" cx="558.19" cy="73.76" r="4.5"/><circle class="cls-4" cx="532.19" cy="70.76" r="4.5"/><circle class="cls-4" cx="540.19" cy="57.76" r="4.5"/><circle class="cls-4" cx="566.19" cy="63.76" r="4.5"/><circle class="cls-4" cx="553.19" cy="59.76" r="4.5"/><circle class="cls-4" cx="584.19" cy="44.76" r="4.5"/><circle class="cls-4" cx="575.19" cy="51.76" r="4.5"/><circle class="cls-4" cx="584.19" cy="61.76" r="4.5"/><circle class="cls-4" cx="595.19" cy="52.76" r="4.5"/><circle class="cls-4" cx="572.19" cy="39.76" r="4.5"/><circle class="cls-4" cx="577.19" cy="71.76" r="4.5"/><circle class="cls-4" cx="592.19" cy="71.76" r="4.5"/><circle class="cls-4" cx="603.19" cy="63.76" r="4.5"/><circle class="cls-4" cx="620.19" cy="67.76" r="4.5"/><circle class="cls-4" cx="671.19" cy="97.76" r="4.5"/><circle class="cls-4" cx="640.19" cy="51.76" r="4.5"/><circle class="cls-4" cx="633.19" cy="76.76" r="4.5"/><circle class="cls-4" cx="647.19" cy="77.76" r="4.5"/><circle class="cls-4" cx="661.19" cy="79.76" r="4.5"/><circle class="cls-4" cx="645.19" cy="91.76" r="4.5"/><circle class="cls-4" cx="688.19" cy="119.76" r="4.5"/><circle class="cls-4" cx="659.19" cy="91.76" r="4.5"/><circle class="cls-4" cx="683.19" cy="103.76" r="4.5"/><circle class="cls-4" cx="697.19" cy="95.76" r="4.5"/><circle class="cls-4" cx="673.19" cy="84.76" r="4.5"/><circle class="cls-4" cx="675.19" cy="114.76" r="4.5"/><circle class="cls-4" cx="707.19" cy="116.76" r="4.5"/><circle class="cls-4" cx="712.19" cy="128.76" r="4.5"/><circle class="cls-4" cx="670.19" cy="154.76" r="4.5"/><circle class="cls-4" cx="674.19" cy="193.76" r="4.5"/><circle class="cls-4" cx="710.19" cy="151.76" r="4.5"/><circle class="cls-4" cx="711.19" cy="165.76" r="4.5"/><circle class="cls-4" cx="688.19" cy="194.76" r="4.5"/><circle class="cls-4" cx="700.19" cy="201.76" r="4.5"/><circle class="cls-4" cx="700.19" cy="187.76" r="4.5"/><circle class="cls-4" cx="688.19" cy="207.76" r="4.5"/><circle class="cls-4" cx="675.19" cy="206.76" r="4.5"/><circle class="cls-4" cx="670.19" cy="219.76" r="4.5"/><circle class="cls-4" cx="639.19" cy="224.76" r="4.5"/><circle class="cls-4" cx="683.19" cy="221.76" r="4.5"/><circle class="cls-4" cx="688.19" cy="135.76" r="4.5"/><circle class="cls-4" cx="646.19" cy="211.76" r="4.5"/><circle class="cls-4" cx="651.19" cy="230.76" r="4.5"/><circle class="cls-4" cx="614.19" cy="55.76" r="4.5"/><circle class="cls-4" cx="634.19" cy="40.76" r="4.5"/><circle class="cls-4" cx="619.19" cy="40.76" r="4.5"/><circle class="cls-4" cx="626.19" cy="51.76" r="4.5"/><circle class="cls-4" cx="606.19" cy="45.76" r="4.5"/><circle class="cls-4" cx="659.19" cy="64.76" r="4.5"/><circle class="cls-4" cx="670.19" cy="57.76" r="4.5"/><circle class="cls-4" cx="654.19" cy="52.76" r="4.5"/><circle class="cls-4" cx="695.19" cy="108.76" r="4.5"/><circle class="cls-4" cx="708.19" cy="103.76" r="4.5"/><circle class="cls-4" cx="671.19" cy="70.76" r="4.5"/><circle class="cls-4" cx="684.19" cy="76.76" r="4.5"/><circle class="cls-4" cx="685.19" cy="89.76" r="4.5"/><circle class="cls-4" cx="645.19" cy="63.76" r="4.5"/><circle class="cls-4" cx="632.19" cy="63.76" r="4.5"/><circle class="cls-4" cx="596.19" cy="36.76" r="4.5"/><circle class="cls-4" cx="561.19" cy="47.76" r="4.5"/><circle class="cls-4" cx="626.19" cy="109.76" r="4.5"/><circle class="cls-4" cx="665.19" cy="122.76" r="4.5"/><circle class="cls-4" cx="677.19" cy="127.76" r="4.5"/><circle class="cls-4" cx="694.19" cy="147.76" r="4.5"/><circle class="cls-4" cx="699.19" cy="159.76" r="4.5"/><circle class="cls-4" cx="675.19" cy="166.76" r="4.5"/><circle class="cls-4" cx="675.19" cy="180.76" r="4.5"/><circle class="cls-4" cx="683.19" cy="155.76" r="4.5"/><circle class="cls-4" cx="688.19" cy="167.76" r="4.5"/><circle class="cls-4" cx="700.19" cy="174.76" r="4.5"/><circle class="cls-4" cx="689.19" cy="181.76" r="4.5"/><circle class="cls-4" cx="593.19" cy="252.76" r="4.5"/><circle class="cls-4" cx="588.19" cy="181.76" r="4.5"/><circle class="cls-4" cx="580.19" cy="191.76" r="4.5"/><circle class="cls-4" cx="566.19" cy="194.76" r="4.5"/><circle class="cls-4" cx="552.19" cy="196.76" r="4.5"/><circle class="cls-4" cx="535.19" cy="203.76" r="4.5"/><circle class="cls-4" cx="524.19" cy="210.76" r="4.5"/><circle class="cls-4" cx="518.19" cy="158.76" r="4.5"/><circle class="cls-4" cx="499.19" cy="155.76" r="4.5"/><circle class="cls-4" cx="495.19" cy="143.76" r="4.5"/><circle class="cls-4" cx="513.19" cy="114.76" r="4.5"/><circle class="cls-4" cx="510.19" cy="147.76" r="4.5"/><circle class="cls-4" cx="505.19" cy="135.76" r="4.5"/><circle class="cls-4" cx="524.19" cy="96.76" r="4.5"/><circle class="cls-4" cx="512.19" cy="101.76" r="4.5"/><circle class="cls-4" cx="527.19" cy="83.76" r="4.5"/><circle class="cls-4" cx="514.19" cy="87.76" r="4.5"/><circle class="cls-4" cx="502.19" cy="121.76" r="4.5"/><circle class="cls-4" cx="501.19" cy="108.76" r="4.5"/></g></g></svg>